<?xml version="1.0" encoding="UTF-8"?>
<svg width="120pt" xmlns:xlink="http://www.w3.org/1999/xlink" version="1.1" viewBox="0 0 120 38.4" xmlns="http://www.w3.org/2000/svg" height="38.4pt" xmlns:inkscape="http://www.inkscape.org/namespaces/inkscape">
 <defs>
  <clipPath id="Clip0">
   <path d="M0 0 L115.442 0 L115.442 15.6193 L0 15.6193 L0 0 Z"/>
  </clipPath>
 </defs>
 <g inkscape:groupmode="layer" id="Background" inkscape:label="Background">
  <g transform="translate(2.60717, 11.3141) scale(1, 1)" clip-rule="evenodd" style="fill:none; stroke:none" clip-path="url(#Clip0)">
   <path transform="translate(0, 0.6985)" style="fill:#ffffff; fill-rule:evenodd;stroke:none;" id="Text2+U0" d="M0.6875 13.5352 L0.6875 1.11719 C0.6875 0.902229 0.637313 0.737458 0.536938 0.622875 C0.436792 0.508292 0.257813 0.41525 0 0.34375 L0 0 L4.576 0 L4.576 0.34375 C4.31819 0.408146 4.13909 0.499469 4.03872 0.617719 C3.93857 0.73574 3.8885 0.902229 3.8885 1.11719 L3.8885 13.5352 C3.8885 13.757 3.94041 13.927 4.04422 14.0453 C4.14826 14.1635 4.32552 14.2549 4.576 14.3193 L4.576 14.663 L0 14.663 L0 14.3193 C0.257813 14.2475 0.436792 14.1544 0.536938 14.0398 C0.637313 13.9252 0.6875 13.757 0.6875 13.5352 Z"/>
   <path transform="translate(7.2, 0.6985)" style="fill:#ffffff; fill-rule:evenodd;stroke:none;" id="Text2+U1" d="M3.62003 4.61897 L3.62003 13.5352 C3.62003 13.757 3.6701 13.9252 3.77025 14.0398 C3.87063 14.1544 4.04972 14.2475 4.30753 14.3193 L4.30753 14.663 L0 14.663 L0 14.3193 C0.257813 14.2475 0.436792 14.1544 0.536938 14.0398 C0.637313 13.9252 0.6875 13.757 0.6875 13.5352 L0.6875 1.11719 C0.6875 0.902229 0.637313 0.737458 0.536938 0.622875 C0.436792 0.508292 0.257813 0.41525 0 0.34375 L0 0 L4.98438 0 L4.98438 0.34375 C4.67638 0.422354 4.52238 0.58701 4.52238 0.837719 C4.52238 1.00959 4.62264 1.19934 4.82316 1.40697 L12.9119 9.81819 L12.9119 1.11719 C12.9119 0.902229 12.8618 0.737458 12.7614 0.622875 C12.6612 0.508292 12.4823 0.41525 12.2244 0.34375 L12.2244 0 L16.5323 0 L16.5323 0.34375 C16.2745 0.41525 16.0954 0.508292 15.995 0.622875 C15.8949 0.737458 15.8448 0.902229 15.8448 1.11719 L15.8448 13.5352 C15.8448 13.757 15.8949 13.9252 15.995 14.0398 C16.0954 14.1544 16.2745 14.2475 16.5323 14.3193 L16.5323 14.663 L11.913 14.663 L11.913 14.3193 C12.2139 14.2549 12.3643 14.1009 12.3643 13.8573 C12.3643 13.714 12.1888 13.4634 11.8377 13.1055 L3.62003 4.61897 Z"/>
   <path transform="translate(25.0033, 0.6985)" style="fill:#ffffff; fill-rule:evenodd;stroke:none;" id="Text2+U2" d="M8.63672 10.4091 L12.5256 1.79369 C12.6903 1.42862 12.7727 1.14583 12.7727 0.945312 C12.7727 0.637313 12.5363 0.436792 12.0636 0.34375 L12.0636 0 L17.0803 0 L17.0803 0.34375 C16.7651 0.386604 16.5466 0.476094 16.4247 0.612219 C16.303 0.748344 16.0919 1.14217 15.7912 1.79369 L10.7102 12.7617 C10.4953 13.2272 10.3878 13.5315 10.3878 13.6747 C10.3878 14.04 10.6134 14.2549 11.0646 14.3193 L11.0646 14.663 L6.01562 14.663 L6.01562 14.3193 C6.46685 14.2549 6.69247 14.0365 6.69247 13.6641 C6.69247 13.5279 6.5851 13.2272 6.37037 12.7617 L1.28906 1.79369 C0.988396 1.14217 0.777104 0.748344 0.655188 0.612219 C0.5335 0.476094 0.315104 0.386604 0 0.34375 L0 0 L5.21022 0 L5.21022 0.34375 C4.73745 0.436792 4.50106 0.637313 4.50106 0.945312 C4.50106 1.14583 4.58345 1.42862 4.74822 1.79369 L8.63672 10.4091 Z"/>
   <path transform="translate(43.3, 0.6985)" style="fill:#ffffff; fill-rule:evenodd;stroke:none;" id="Text2+U3" d="M0.6875 13.5352 L0.6875 1.11719 C0.6875 0.902229 0.637313 0.737458 0.536937 0.622875 C0.436792 0.508292 0.257813 0.41525 0 0.34375 L0 0 L4.576 0 L4.576 0.34375 C4.31819 0.408146 4.13909 0.499469 4.03872 0.617719 C3.93857 0.73574 3.8885 0.902229 3.8885 1.11719 L3.8885 13.5352 C3.8885 13.757 3.94041 13.927 4.04422 14.0453 C4.14826 14.1635 4.32552 14.2549 4.576 14.3193 L4.576 14.663 L0 14.663 L0 14.3193 C0.257813 14.2475 0.436792 14.1544 0.536937 14.0398 C0.637313 13.9252 0.6875 13.757 0.6875 13.5352 Z"/>
   <path transform="translate(50.1562, 0.440687)" style="fill:#ffffff; fill-rule:evenodd;stroke:none;" id="Text2+U4" d="M14.5558 9.88281 L16.5966 12.9443 L16.3175 13.1374 C16.1169 12.9514 15.9522 12.8583 15.8232 12.8583 C15.6944 12.8583 15.3327 13.0302 14.7383 13.3739 C13.5065 14.083 12.4699 14.561 11.6284 14.8081 C10.7869 15.0551 9.7861 15.1786 8.62606 15.1786 C6.31285 15.1786 4.41501 14.6308 2.93253 13.5352 C2.05895 12.8976 1.37145 12.1062 0.870031 11.1609 C0.29001 10.0797 0 8.88731 0 7.58381 C0 5.80777 0.519177 4.26445 1.55753 2.95384 C3.11884 0.984615 5.47857 0 8.63672 0 C9.79676 0 10.7921 0.121802 11.6229 0.365406 C12.4536 0.608781 13.4921 1.08854 14.7383 1.80469 C15.3327 2.1411 15.6944 2.30931 15.8232 2.30931 C15.9522 2.30931 16.1169 2.21627 16.3175 2.03019 L16.5966 2.22337 L14.5558 5.28516 L14.2656 5.09162 C14.2798 4.97704 14.2869 4.88033 14.2869 4.8015 C14.2869 4.59387 14.1974 4.39874 14.0185 4.21609 C13.8395 4.03345 13.5208 3.81322 13.0625 3.55541 C11.795 2.83926 10.4522 2.48119 9.03409 2.48119 C7.35843 2.48119 6.02284 2.90022 5.02734 3.73828 C3.85286 4.71934 3.26563 6.00119 3.26563 7.58381 C3.26563 9.16644 3.85286 10.4484 5.02734 11.4297 C6.02284 12.2675 7.35843 12.6864 9.03409 12.6864 C10.4522 12.6864 11.795 12.3284 13.0625 11.6122 C13.5208 11.3544 13.8395 11.1342 14.0185 10.9515 C14.1974 10.7689 14.2869 10.5738 14.2869 10.3661 C14.2869 10.2873 14.2798 10.1941 14.2656 10.0867 L14.5558 9.88281 Z"/>
   <path transform="translate(67.8292, 0)" style="fill:#ffffff; fill-rule:evenodd;stroke:none;" id="Text2+U5" d="M8.87287 3.11541 L8.87287 14.2337 C8.87287 14.4555 8.92295 14.6237 9.02309 14.7383 C9.12347 14.8529 9.30256 14.946 9.56037 15.0177 L9.56037 15.3615 L4.98438 15.3615 L4.98438 15.0177 C5.24219 14.946 5.42117 14.8529 5.52131 14.7383 C5.62169 14.6237 5.67188 14.4555 5.67188 14.2337 L5.67188 3.11541 L1.11719 3.11541 C0.902229 3.11541 0.737458 3.16376 0.622875 3.26047 C0.508292 3.35718 0.41525 3.53444 0.34375 3.79225 L0 3.79225 L0 0 L0.34375 0 C0.422354 0.265146 0.517115 0.447906 0.628031 0.548281 C0.739177 0.648427 0.902229 0.6985 1.11719 0.6985 L13.4169 0.6985 C13.639 0.6985 13.8073 0.648427 13.9219 0.548281 C14.0365 0.447906 14.1295 0.265146 14.201 0 L14.5447 0 L14.5447 3.79225 L14.201 3.79225 C14.1295 3.53444 14.0365 3.35718 13.9219 3.26047 C13.8073 3.16376 13.639 3.11541 13.4169 3.11541 L8.87287 3.11541 Z"/>
   <path transform="translate(83.5099, 0.6985)" style="fill:#ffffff; fill-rule:evenodd;stroke:none;" id="Text2+U6" d="M15.2109 1.12784 L15.2109 9.34553 C15.2109 10.8995 14.9245 12.0632 14.3516 12.8367 C13.3203 14.2261 11.1898 14.9208 7.95987 14.9208 C5.62535 14.9208 3.83866 14.5449 2.59978 13.793 C1.8763 13.3559 1.375 12.7615 1.09588 12.0096 C0.823625 11.2648 0.6875 10.3768 0.6875 9.34553 L0.6875 1.12784 C0.6875 0.905781 0.637313 0.737458 0.536937 0.622875 C0.436792 0.508292 0.257813 0.41525 0 0.34375 L0 0 L4.587 0 L4.587 0.34375 C4.32919 0.408146 4.14838 0.499469 4.04456 0.617719 C3.94075 0.73574 3.88884 0.905781 3.88884 1.12784 L3.88884 8.44319 C3.88884 9.28835 3.93536 9.91329 4.02841 10.318 C4.12145 10.7225 4.29688 11.0607 4.55469 11.3328 C5.24219 12.0633 6.41667 12.4286 8.07813 12.4286 C9.74669 12.4286 10.9247 12.0633 11.6122 11.3328 C11.8629 11.0607 12.0348 10.7225 12.1278 10.318 C12.2211 9.91329 12.2678 9.28835 12.2678 8.44319 L12.2678 1.12784 C12.2678 0.905781 12.2176 0.737458 12.1172 0.622875 C12.017 0.508292 11.8381 0.41525 11.5803 0.34375 L11.5803 0 L15.8984 0 L15.8984 0.34375 C15.6406 0.41525 15.4615 0.508292 15.3612 0.622875 C15.261 0.737458 15.2109 0.905781 15.2109 1.12784 Z"/>
   <path transform="translate(101.36, 0.440687)" style="fill:#ffffff; fill-rule:evenodd;stroke:none;" id="Text2+U7" d="M14.0827 1.49291 L12.332 4.94141 L12.0313 4.76953 C12.0384 4.6978 12.0419 4.64051 12.0419 4.59766 C12.0419 4.35405 11.8342 4.09257 11.4187 3.81322 C10.1441 2.9252 8.64737 2.48119 6.92862 2.48119 C6.1694 2.48119 5.49977 2.57434 4.91975 2.76066 C4.49717 2.90389 4.15514 3.11873 3.89366 3.40519 C3.63241 3.69165 3.50178 4.0032 3.50178 4.33984 C3.50178 4.89122 3.83476 5.26717 4.50072 5.46769 C4.84447 5.56783 5.58216 5.6752 6.71378 5.78978 L8.40022 5.96166 C9.40282 6.06914 10.2138 6.21603 10.8333 6.40234 C11.4527 6.58843 12.0024 6.84979 12.4822 7.18644 C12.9692 7.53729 13.3541 7.99918 13.6369 8.57209 C13.9199 9.14501 14.0614 9.75734 14.0614 10.4091 C14.0614 11.4403 13.7285 12.357 13.0625 13.1591 C12.4609 13.8894 11.5263 14.4302 10.2585 14.7813 C9.31322 15.0462 8.29996 15.1786 7.21875 15.1786 C5.27794 15.1786 3.36222 14.7131 1.47159 13.782 C1.07055 13.5959 0.830615 13.5028 0.751781 13.5028 C0.65874 13.5028 0.511958 13.5816 0.311437 13.739 L0 13.5781 L1.58984 9.97941 L1.90128 10.1296 C1.90128 10.1943 1.90128 10.2409 1.90128 10.2695 C1.90128 10.5917 2.05528 10.8889 2.36328 11.1609 C2.82872 11.5764 3.54842 11.9345 4.52237 12.2354 C5.49633 12.5361 6.4201 12.6864 7.29369 12.6864 C8.24633 12.6864 9.05919 12.5253 9.73225 12.2031 C10.1046 12.0239 10.4019 11.7858 10.6239 11.4888 C10.846 11.1916 10.957 10.8818 10.957 10.5593 C10.957 10.0723 10.6956 9.72503 10.1726 9.51741 C9.80753 9.37418 9.06996 9.24172 7.95987 9.12003 L6.30541 8.94816 C5.19555 8.83357 4.41146 8.72438 3.95313 8.62056 C3.49479 8.51675 3.03646 8.35026 2.57813 8.12109 C1.92637 7.79866 1.4143 7.31523 1.04191 6.67081 C0.70526 6.09079 0.536937 5.42472 0.536937 4.67259 C0.536937 3.43372 0.963073 2.40969 1.81534 1.6005 C2.93253 0.5335 4.60831 0 6.84269 0 C7.7809 0 8.65459 0.094875 9.46378 0.284625 C10.273 0.474375 11.2827 0.82351 12.4929 1.33203 C12.9084 1.49657 13.1626 1.57884 13.2557 1.57884 C13.406 1.57884 13.5814 1.49657 13.782 1.33203 L14.0827 1.49291 Z"/>
  </g>
 </g>
</svg>
